<?xml version="1.0" encoding="UTF-8" standalone="no"?>
<!-- Created with Inkscape (http://www.inkscape.org/) -->

<svg
   xmlns:dc="http://purl.org/dc/elements/1.1/"
   xmlns:cc="http://creativecommons.org/ns#"
   xmlns:rdf="http://www.w3.org/1999/02/22-rdf-syntax-ns#"
   xmlns:svg="http://www.w3.org/2000/svg"
   xmlns="http://www.w3.org/2000/svg"
   xmlns:sodipodi="http://sodipodi.sourceforge.net/DTD/sodipodi-0.dtd"
   xmlns:inkscape="http://www.inkscape.org/namespaces/inkscape"
   width="64"
   height="32"
   viewBox="0 0 16.933333 8.4666669"
   version="1.1"
   id="svg6095"
   inkscape:version="0.92.5 (2060ec1f9f, 2020-04-08)"
   sodipodi:docname="connected-materia.svg">
  <defs
     id="defs6089" />
  <sodipodi:namedview
     id="base"
     pagecolor="#ffffff"
     bordercolor="#666666"
     borderopacity="1.0"
     inkscape:pageopacity="0.0"
     inkscape:pageshadow="2"
     inkscape:zoom="5.655"
     inkscape:cx="88.689606"
     inkscape:cy="40.384738"
     inkscape:document-units="mm"
     inkscape:current-layer="layer1"
     showgrid="false"
     units="px"
     inkscape:window-width="1920"
     inkscape:window-height="1001"
     inkscape:window-x="0"
     inkscape:window-y="28"
     inkscape:window-maximized="1" />
  <metadata
     id="metadata6092">
    <rdf:RDF>
      <cc:Work
         rdf:about="">
        <dc:format>image/svg+xml</dc:format>
        <dc:type
           rdf:resource="http://purl.org/dc/dcmitype/StillImage" />
        <dc:title></dc:title>
      </cc:Work>
    </rdf:RDF>
  </metadata>
  <g
     inkscape:label="Layer 1"
     inkscape:groupmode="layer"
     id="layer1"
     transform="translate(0,-288.53332)"
     style="display:inline">
    <path
       style="display:inline;opacity:1;fill:#000000;fill-opacity:1;stroke:#000000;stroke-width:0.40979454;stroke-miterlimit:2;stroke-dasharray:none;stroke-opacity:1"
       d="m 4.233592,289.79655 a 2.9701027,2.9701027 0 0 0 -2.9703614,2.97036 2.9701027,2.9701027 0 0 0 2.9703614,2.96985 2.9701027,2.9701027 0 0 0 2.6323975,-1.59991 h 3.1998045 a 2.9701024,2.9701027 0 0 0 2.634465,1.59991 2.9701024,2.9701027 0 0 0 2.969844,-2.96985 2.9701024,2.9701027 0 0 0 -2.969844,-2.97036 2.9701024,2.9701027 0 0 0 -2.632398,1.5999 H 6.8670229 a 2.9701027,2.9701027 0 0 0 -2.6334309,-1.5999 z"
       id="path7563-2-1-8"
       inkscape:connector-curvature="0" />
    <path
       style="display:inline;opacity:1;fill:#000000;fill-opacity:1;stroke:#b1ffee;stroke-width:1.41976058;stroke-miterlimit:2;stroke-dasharray:none;stroke-opacity:1"
       d="M 16 5.7089844 A 10.290119 10.29012 0 0 0 5.7089844 16 A 10.290119 10.29012 0 0 0 16 26.291016 A 10.290119 10.29012 0 0 0 25.330078 20.316406 L 38.673828 20.316406 A 10.290119 10.29012 0 0 0 48 26.291016 A 10.290119 10.29012 0 0 0 58.291016 16 A 10.290119 10.29012 0 0 0 48 5.7089844 A 10.290119 10.29012 0 0 0 38.669922 11.683594 L 25.326172 11.683594 A 10.290119 10.29012 0 0 0 16 5.7089844 z "
       transform="matrix(0.26458333,0,0,0.26458333,0,288.53332)"
       id="path7563-2-1" />
  </g>
  <g
     inkscape:groupmode="layer"
     id="layer2"
     inkscape:label="Layer 2"
     style="display:inline" />
</svg>
